# 3ds Max Wavefront OBJ Exporter v0.97b - (c)2007 guruware
# File Created: 22.12.2019 22:40:45

mtllib Pyramid.mtl

#
# object Pyramid001
#

v  0.0000 38.9332 -0.0000
v  -18.2228 0.0000 13.7941
v  18.2228 0.0000 13.7941
v  18.2228 0.0000 -13.7941
v  -18.2228 0.0000 -13.7941
v  0.0000 0.0000 -0.0000
# 6 vertices

vn 0.0000 1.0000 -0.0000
vn -0.6689 -0.3813 0.6381
vn 0.6689 -0.3813 0.6381
vn 0.6689 -0.3813 -0.6381
vn -0.6689 -0.3813 -0.6381
vn 0.0000 -1.0000 -0.0000
# 6 vertex normals

vt 18.2228 38.9332 0.0000
vt 0.0000 0.0000 0.0000
vt 36.4457 0.0000 0.0000
vt 13.7941 38.9332 0.0000
vt -4.4287 0.0000 0.0000
vt 23.1596 0.0000 0.0000
vt 0.0000 27.5883 0.0000
vt 18.2228 13.7941 0.0000
vt 36.4457 27.5883 0.0000
# 9 texture coords

o Pyramid001
g Pyramid001
usemtl wire_088144225
s 4
f 1/1/1 2/2/2 3/3/3 
s 2
f 1/4/1 3/5/3 4/6/4 
s 16
f 1/1/1 4/2/4 5/3/5 
s 32
f 1/4/1 5/5/5 2/6/2 
s 8
f 2/7/2 6/8/6 3/9/3 
f 3/9/3 6/8/6 4/3/4 
f 4/3/4 6/8/6 5/2/5 
f 5/2/5 6/8/6 2/7/2 
# 0 polygons - 8 triangles

